<mxfile host="Electron" agent="Mozilla/5.0 (Windows NT 10.0; Win64; x64) AppleWebKit/537.36 (KHTML, like Gecko) draw.io/25.0.2 Chrome/128.0.6613.186 Electron/32.2.5 Safari/537.36" version="25.0.2">
  <diagram name="Страница — 1" id="0_j_KOGDF_qukn_8iNPn">
    <mxGraphModel dx="2467" dy="1453" grid="1" gridSize="10" guides="1" tooltips="1" connect="1" arrows="1" fold="1" page="1" pageScale="1" pageWidth="827" pageHeight="1169" math="0" shadow="0">
      <root>
        <mxCell id="0" />
        <mxCell id="1" parent="0" />
        <mxCell id="qiRPAga-pybHtt2SZNbv-49" value="Actor" style="shape=umlActor;verticalLabelPosition=bottom;verticalAlign=top;html=1;" vertex="1" parent="1">
          <mxGeometry x="110" y="90" width="30" height="60" as="geometry" />
        </mxCell>
        <mxCell id="qiRPAga-pybHtt2SZNbv-96" style="edgeStyle=orthogonalEdgeStyle;rounded=0;orthogonalLoop=1;jettySize=auto;html=1;curved=0;exitX=0;exitY=0;exitDx=0;exitDy=5;exitPerimeter=0;dashed=1;strokeColor=#3700CC;endArrow=classic;endFill=1;fillColor=#6a00ff;" edge="1" parent="1" source="qiRPAga-pybHtt2SZNbv-51">
          <mxGeometry relative="1" as="geometry">
            <mxPoint x="70" y="175.1578947368422" as="targetPoint" />
          </mxGeometry>
        </mxCell>
        <mxCell id="qiRPAga-pybHtt2SZNbv-51" value="" style="html=1;points=[[0,0,0,0,5],[0,1,0,0,-5],[1,0,0,0,5],[1,1,0,0,-5]];perimeter=orthogonalPerimeter;outlineConnect=0;targetShapes=umlLifeline;portConstraint=eastwest;newEdgeStyle={&quot;curved&quot;:0,&quot;rounded&quot;:0};" vertex="1" parent="1">
          <mxGeometry x="115" y="170" width="20" height="880" as="geometry" />
        </mxCell>
        <mxCell id="qiRPAga-pybHtt2SZNbv-60" value="" style="rounded=0;dashed=1;container=0;collapsible=0;recursiveResize=0;fillColor=none;opacity=60;" vertex="1" parent="1">
          <mxGeometry x="470" y="110" width="100" height="1000" as="geometry" />
        </mxCell>
        <mxCell id="qiRPAga-pybHtt2SZNbv-61" value="&lt;p data-pm-slice=&quot;1 1 [&amp;quot;ordered_list&amp;quot;,{&amp;quot;spread&amp;quot;:true,&amp;quot;startingNumber&amp;quot;:1,&amp;quot;start&amp;quot;:47,&amp;quot;end&amp;quot;:3211},&amp;quot;regular_list_item&amp;quot;,{&amp;quot;start&amp;quot;:47,&amp;quot;end&amp;quot;:162},&amp;quot;list&amp;quot;,{&amp;quot;spread&amp;quot;:false,&amp;quot;start&amp;quot;:101,&amp;quot;end&amp;quot;:162},&amp;quot;regular_list_item&amp;quot;,{&amp;quot;start&amp;quot;:101,&amp;quot;end&amp;quot;:162}]&quot;&gt;:Клиентское приложение Telegram&lt;/p&gt;" style="rounded=0;dashed=0;whiteSpace=wrap;html=1;" vertex="1" parent="1">
          <mxGeometry x="470" y="60" width="100" height="60" as="geometry" />
        </mxCell>
        <mxCell id="qiRPAga-pybHtt2SZNbv-63" value="" style="html=1;verticalAlign=bottom;startArrow=none;endArrow=none;dashed=1;rounded=0;" edge="1" parent="1" source="qiRPAga-pybHtt2SZNbv-62" target="qiRPAga-pybHtt2SZNbv-61">
          <mxGeometry relative="1" as="geometry" />
        </mxCell>
        <mxCell id="qiRPAga-pybHtt2SZNbv-73" value="" style="html=1;verticalAlign=bottom;startArrow=none;endArrow=open;endFill=0;rounded=0;exitX=1;exitY=0;exitDx=0;exitDy=5;exitPerimeter=0;entryX=0.062;entryY=0.153;entryDx=0;entryDy=0;entryPerimeter=0;" edge="1" parent="1" source="qiRPAga-pybHtt2SZNbv-51" target="qiRPAga-pybHtt2SZNbv-62">
          <mxGeometry relative="1" as="geometry">
            <mxPoint x="135" y="185" as="sourcePoint" />
            <mxPoint x="520" y="185" as="targetPoint" />
          </mxGeometry>
        </mxCell>
        <mxCell id="qiRPAga-pybHtt2SZNbv-74" value="&lt;p data-pm-slice=&quot;1 1 [&amp;quot;ordered_list&amp;quot;,{&amp;quot;spread&amp;quot;:true,&amp;quot;startingNumber&amp;quot;:1,&amp;quot;start&amp;quot;:47,&amp;quot;end&amp;quot;:3211},&amp;quot;regular_list_item&amp;quot;,{&amp;quot;start&amp;quot;:47,&amp;quot;end&amp;quot;:162}]&quot;&gt;Запрашивает вход в аккаунт&lt;/p&gt;" style="edgeLabel;html=1;align=center;verticalAlign=middle;resizable=0;points=[];" vertex="1" connectable="0" parent="qiRPAga-pybHtt2SZNbv-73">
          <mxGeometry x="-0.0233" y="4" relative="1" as="geometry">
            <mxPoint as="offset" />
          </mxGeometry>
        </mxCell>
        <mxCell id="qiRPAga-pybHtt2SZNbv-75" style="edgeStyle=orthogonalEdgeStyle;rounded=0;orthogonalLoop=1;jettySize=auto;html=1;exitX=1;exitY=0.5;exitDx=0;exitDy=0;entryX=0;entryY=0.5;entryDx=0;entryDy=0;" edge="1" parent="1" source="qiRPAga-pybHtt2SZNbv-62" target="qiRPAga-pybHtt2SZNbv-78">
          <mxGeometry relative="1" as="geometry">
            <mxPoint x="680" y="200.1428571428571" as="targetPoint" />
          </mxGeometry>
        </mxCell>
        <mxCell id="qiRPAga-pybHtt2SZNbv-90" value="&lt;p data-pm-slice=&quot;1 1 [&amp;quot;ordered_list&amp;quot;,{&amp;quot;spread&amp;quot;:true,&amp;quot;startingNumber&amp;quot;:1,&amp;quot;start&amp;quot;:47,&amp;quot;end&amp;quot;:3211},&amp;quot;regular_list_item&amp;quot;,{&amp;quot;start&amp;quot;:164,&amp;quot;end&amp;quot;:296}]&quot;&gt;Отправляет запрос авторизации&lt;/p&gt;" style="edgeLabel;html=1;align=center;verticalAlign=middle;resizable=0;points=[];" vertex="1" connectable="0" parent="qiRPAga-pybHtt2SZNbv-75">
          <mxGeometry x="0.0197" y="1" relative="1" as="geometry">
            <mxPoint as="offset" />
          </mxGeometry>
        </mxCell>
        <mxCell id="qiRPAga-pybHtt2SZNbv-62" value="" style="rounded=0;dashed=0;" vertex="1" parent="1">
          <mxGeometry x="515" y="170" width="10" height="60" as="geometry" />
        </mxCell>
        <mxCell id="qiRPAga-pybHtt2SZNbv-64" value="" style="html=1;verticalAlign=bottom;startArrow=none;endArrow=none;dashed=1;rounded=0;exitX=0.5;exitY=0.98;exitDx=0;exitDy=0;exitPerimeter=0;" edge="1" parent="1" target="qiRPAga-pybHtt2SZNbv-62" source="qiRPAga-pybHtt2SZNbv-122">
          <mxGeometry relative="1" as="geometry">
            <mxPoint x="550" y="780" as="sourcePoint" />
          </mxGeometry>
        </mxCell>
        <mxCell id="qiRPAga-pybHtt2SZNbv-76" value="&lt;p data-pm-slice=&quot;1 1 [&amp;quot;ordered_list&amp;quot;,{&amp;quot;spread&amp;quot;:true,&amp;quot;startingNumber&amp;quot;:1,&amp;quot;start&amp;quot;:47,&amp;quot;end&amp;quot;:3211},&amp;quot;regular_list_item&amp;quot;,{&amp;quot;start&amp;quot;:47,&amp;quot;end&amp;quot;:162},&amp;quot;list&amp;quot;,{&amp;quot;spread&amp;quot;:false,&amp;quot;start&amp;quot;:101,&amp;quot;end&amp;quot;:162},&amp;quot;regular_list_item&amp;quot;,{&amp;quot;start&amp;quot;:101,&amp;quot;end&amp;quot;:162}]&quot;&gt;:&lt;span style=&quot;background-color: initial;&quot;&gt;Сервер аутентификации&lt;/span&gt;&lt;/p&gt;" style="rounded=0;dashed=0;whiteSpace=wrap;html=1;" vertex="1" parent="1">
          <mxGeometry x="780" y="69" width="100" height="60" as="geometry" />
        </mxCell>
        <mxCell id="qiRPAga-pybHtt2SZNbv-77" value="" style="html=1;verticalAlign=bottom;startArrow=none;endArrow=none;dashed=1;rounded=0;" edge="1" parent="1" source="qiRPAga-pybHtt2SZNbv-78" target="qiRPAga-pybHtt2SZNbv-76">
          <mxGeometry relative="1" as="geometry" />
        </mxCell>
        <mxCell id="qiRPAga-pybHtt2SZNbv-85" style="edgeStyle=orthogonalEdgeStyle;rounded=0;orthogonalLoop=1;jettySize=auto;html=1;exitX=1;exitY=0.75;exitDx=0;exitDy=0;entryX=0;entryY=0.25;entryDx=0;entryDy=0;" edge="1" parent="1" source="qiRPAga-pybHtt2SZNbv-78" target="qiRPAga-pybHtt2SZNbv-116">
          <mxGeometry relative="1" as="geometry">
            <mxPoint x="835" y="275" as="targetPoint" />
          </mxGeometry>
        </mxCell>
        <mxCell id="qiRPAga-pybHtt2SZNbv-93" value="&lt;p data-pm-slice=&quot;1 1 [&amp;quot;ordered_list&amp;quot;,{&amp;quot;spread&amp;quot;:true,&amp;quot;startingNumber&amp;quot;:1,&amp;quot;start&amp;quot;:47,&amp;quot;end&amp;quot;:3211},&amp;quot;regular_list_item&amp;quot;,{&amp;quot;start&amp;quot;:298,&amp;quot;end&amp;quot;:425}]&quot;&gt;Проверяет данные пользователя&lt;/p&gt;" style="edgeLabel;html=1;align=center;verticalAlign=middle;resizable=0;points=[];labelBackgroundColor=none;" vertex="1" connectable="0" parent="qiRPAga-pybHtt2SZNbv-85">
          <mxGeometry x="0.1004" y="-1" relative="1" as="geometry">
            <mxPoint x="-5" y="14" as="offset" />
          </mxGeometry>
        </mxCell>
        <mxCell id="qiRPAga-pybHtt2SZNbv-98" style="edgeStyle=orthogonalEdgeStyle;rounded=0;orthogonalLoop=1;jettySize=auto;html=1;exitX=0;exitY=0.75;exitDx=0;exitDy=0;dashed=1;" edge="1" parent="1" source="qiRPAga-pybHtt2SZNbv-78">
          <mxGeometry relative="1" as="geometry">
            <mxPoint x="110" y="240" as="targetPoint" />
            <Array as="points">
              <mxPoint x="750" y="214" />
              <mxPoint x="750" y="240" />
              <mxPoint x="150" y="240" />
            </Array>
          </mxGeometry>
        </mxCell>
        <mxCell id="qiRPAga-pybHtt2SZNbv-99" value="&lt;p data-pm-slice=&quot;1 1 [&amp;quot;ordered_list&amp;quot;,{&amp;quot;spread&amp;quot;:true,&amp;quot;startingNumber&amp;quot;:1,&amp;quot;start&amp;quot;:47,&amp;quot;end&amp;quot;:3211},&amp;quot;regular_list_item&amp;quot;,{&amp;quot;start&amp;quot;:561,&amp;quot;end&amp;quot;:685}]&quot;&gt;Передает результат авторизации&lt;/p&gt;" style="edgeLabel;html=1;align=center;verticalAlign=middle;resizable=0;points=[];labelBackgroundColor=none;" vertex="1" connectable="0" parent="qiRPAga-pybHtt2SZNbv-98">
          <mxGeometry x="0.0876" y="-1" relative="1" as="geometry">
            <mxPoint x="-88" y="11" as="offset" />
          </mxGeometry>
        </mxCell>
        <mxCell id="qiRPAga-pybHtt2SZNbv-78" value="" style="rounded=0;dashed=0;" vertex="1" parent="1">
          <mxGeometry x="825" y="169" width="10" height="60" as="geometry" />
        </mxCell>
        <mxCell id="qiRPAga-pybHtt2SZNbv-79" value="" style="html=1;verticalAlign=bottom;startArrow=none;endArrow=none;dashed=1;rounded=0;exitX=0.5;exitY=0.98;exitDx=0;exitDy=0;exitPerimeter=0;" edge="1" parent="1" target="qiRPAga-pybHtt2SZNbv-78" source="qiRPAga-pybHtt2SZNbv-120">
          <mxGeometry relative="1" as="geometry">
            <mxPoint x="830" y="309.20000000000005" as="sourcePoint" />
          </mxGeometry>
        </mxCell>
        <mxCell id="qiRPAga-pybHtt2SZNbv-87" value="" style="html=1;verticalAlign=bottom;startArrow=none;endArrow=none;dashed=1;rounded=0;exitX=0.5;exitY=0.98;exitDx=0;exitDy=0;exitPerimeter=0;" edge="1" parent="1">
          <mxGeometry relative="1" as="geometry">
            <mxPoint x="830" y="1099" as="sourcePoint" />
            <mxPoint x="830" y="310" as="targetPoint" />
          </mxGeometry>
        </mxCell>
        <mxCell id="qiRPAga-pybHtt2SZNbv-89" value="&lt;p data-pm-slice=&quot;1 1 [&amp;quot;ordered_list&amp;quot;,{&amp;quot;spread&amp;quot;:true,&amp;quot;startingNumber&amp;quot;:1,&amp;quot;start&amp;quot;:47,&amp;quot;end&amp;quot;:3211},&amp;quot;regular_list_item&amp;quot;,{&amp;quot;start&amp;quot;:47,&amp;quot;end&amp;quot;:162},&amp;quot;list&amp;quot;,{&amp;quot;spread&amp;quot;:false,&amp;quot;start&amp;quot;:101,&amp;quot;end&amp;quot;:162},&amp;quot;regular_list_item&amp;quot;,{&amp;quot;start&amp;quot;:101,&amp;quot;end&amp;quot;:162}]&quot;&gt;:&lt;span style=&quot;background-color: initial;&quot;&gt;База данных&lt;/span&gt;&lt;/p&gt;" style="rounded=0;dashed=0;whiteSpace=wrap;html=1;" vertex="1" parent="1">
          <mxGeometry x="1000" y="120" width="70" height="40" as="geometry" />
        </mxCell>
        <mxCell id="qiRPAga-pybHtt2SZNbv-97" value="&lt;p data-pm-slice=&quot;1 1 [&amp;quot;ordered_list&amp;quot;,{&amp;quot;spread&amp;quot;:true,&amp;quot;startingNumber&amp;quot;:1,&amp;quot;start&amp;quot;:47,&amp;quot;end&amp;quot;:3211},&amp;quot;regular_list_item&amp;quot;,{&amp;quot;start&amp;quot;:47,&amp;quot;end&amp;quot;:162},&amp;quot;list&amp;quot;,{&amp;quot;spread&amp;quot;:false,&amp;quot;start&amp;quot;:101,&amp;quot;end&amp;quot;:162},&amp;quot;regular_list_item&amp;quot;,{&amp;quot;start&amp;quot;:101,&amp;quot;end&amp;quot;:162}]&quot;&gt;:приложение Telegram&lt;/p&gt;" style="rounded=0;dashed=0;whiteSpace=wrap;html=1;" vertex="1" parent="1">
          <mxGeometry x="-30" y="150" width="100" height="60" as="geometry" />
        </mxCell>
        <mxCell id="qiRPAga-pybHtt2SZNbv-100" value="" style="html=1;verticalAlign=bottom;startArrow=none;endArrow=open;endFill=0;rounded=0;entryX=0;entryY=0.25;entryDx=0;entryDy=0;" edge="1" parent="1" target="qiRPAga-pybHtt2SZNbv-102">
          <mxGeometry relative="1" as="geometry">
            <mxPoint x="110" y="475" as="sourcePoint" />
            <mxPoint x="525" y="374" as="targetPoint" />
          </mxGeometry>
        </mxCell>
        <mxCell id="qiRPAga-pybHtt2SZNbv-101" value="&lt;p data-pm-slice=&quot;1 1 [&amp;quot;ordered_list&amp;quot;,{&amp;quot;spread&amp;quot;:true,&amp;quot;startingNumber&amp;quot;:1,&amp;quot;start&amp;quot;:47,&amp;quot;end&amp;quot;:3211},&amp;quot;regular_list_item&amp;quot;,{&amp;quot;start&amp;quot;:687,&amp;quot;end&amp;quot;:796}]&quot;&gt;Отправляет сообщение&lt;/p&gt;" style="edgeLabel;html=1;align=center;verticalAlign=middle;resizable=0;points=[];" vertex="1" connectable="0" parent="qiRPAga-pybHtt2SZNbv-100">
          <mxGeometry x="-0.0233" y="4" relative="1" as="geometry">
            <mxPoint as="offset" />
          </mxGeometry>
        </mxCell>
        <mxCell id="qiRPAga-pybHtt2SZNbv-103" value="" style="html=1;verticalAlign=bottom;startArrow=none;endArrow=none;dashed=1;rounded=0;exitX=0.5;exitY=0.98;exitDx=0;exitDy=0;exitPerimeter=0;" edge="1" parent="1" source="qiRPAga-pybHtt2SZNbv-60" target="qiRPAga-pybHtt2SZNbv-102">
          <mxGeometry relative="1" as="geometry">
            <mxPoint x="520" y="1090" as="sourcePoint" />
            <mxPoint x="520" y="230" as="targetPoint" />
          </mxGeometry>
        </mxCell>
        <mxCell id="qiRPAga-pybHtt2SZNbv-113" style="edgeStyle=orthogonalEdgeStyle;rounded=0;orthogonalLoop=1;jettySize=auto;html=1;exitX=1;exitY=0.75;exitDx=0;exitDy=0;entryX=0;entryY=0.5;entryDx=0;entryDy=0;" edge="1" parent="1" source="qiRPAga-pybHtt2SZNbv-102" target="qiRPAga-pybHtt2SZNbv-110">
          <mxGeometry relative="1" as="geometry">
            <mxPoint x="1086.6205886314656" y="504.8620689655173" as="targetPoint" />
          </mxGeometry>
        </mxCell>
        <mxCell id="qiRPAga-pybHtt2SZNbv-114" value="&lt;p data-pm-slice=&quot;1 1 [&amp;quot;ordered_list&amp;quot;,{&amp;quot;spread&amp;quot;:true,&amp;quot;startingNumber&amp;quot;:1,&amp;quot;start&amp;quot;:47,&amp;quot;end&amp;quot;:3211},&amp;quot;regular_list_item&amp;quot;,{&amp;quot;start&amp;quot;:798,&amp;quot;end&amp;quot;:921}]&quot;&gt;Шифрует сообщение&lt;/p&gt;" style="edgeLabel;html=1;align=center;verticalAlign=middle;resizable=0;points=[];labelBackgroundColor=default;" vertex="1" connectable="0" parent="qiRPAga-pybHtt2SZNbv-113">
          <mxGeometry x="0.0071" relative="1" as="geometry">
            <mxPoint y="5" as="offset" />
          </mxGeometry>
        </mxCell>
        <mxCell id="qiRPAga-pybHtt2SZNbv-108" value="&lt;p data-pm-slice=&quot;1 1 [&amp;quot;ordered_list&amp;quot;,{&amp;quot;spread&amp;quot;:true,&amp;quot;startingNumber&amp;quot;:1,&amp;quot;start&amp;quot;:47,&amp;quot;end&amp;quot;:3211},&amp;quot;regular_list_item&amp;quot;,{&amp;quot;start&amp;quot;:47,&amp;quot;end&amp;quot;:162},&amp;quot;list&amp;quot;,{&amp;quot;spread&amp;quot;:false,&amp;quot;start&amp;quot;:101,&amp;quot;end&amp;quot;:162},&amp;quot;regular_list_item&amp;quot;,{&amp;quot;start&amp;quot;:101,&amp;quot;end&amp;quot;:162}]&quot;&gt;:&lt;span style=&quot;background-color: initial;&quot;&gt;Сервер шифрования данных&lt;/span&gt;&lt;/p&gt;" style="rounded=0;dashed=0;whiteSpace=wrap;html=1;" vertex="1" parent="1">
          <mxGeometry x="1155" y="110" width="100" height="60" as="geometry" />
        </mxCell>
        <mxCell id="qiRPAga-pybHtt2SZNbv-109" value="" style="html=1;verticalAlign=bottom;startArrow=none;endArrow=none;dashed=1;rounded=0;" edge="1" parent="1" source="qiRPAga-pybHtt2SZNbv-110" target="qiRPAga-pybHtt2SZNbv-108">
          <mxGeometry relative="1" as="geometry" />
        </mxCell>
        <mxCell id="qiRPAga-pybHtt2SZNbv-128" style="edgeStyle=orthogonalEdgeStyle;rounded=0;orthogonalLoop=1;jettySize=auto;html=1;exitX=1;exitY=0.25;exitDx=0;exitDy=0;entryX=0;entryY=0.25;entryDx=0;entryDy=0;" edge="1" parent="1" source="qiRPAga-pybHtt2SZNbv-110" target="qiRPAga-pybHtt2SZNbv-131">
          <mxGeometry relative="1" as="geometry">
            <mxPoint x="1390" y="475.2068965517242" as="targetPoint" />
          </mxGeometry>
        </mxCell>
        <mxCell id="qiRPAga-pybHtt2SZNbv-138" value="&lt;p data-pm-slice=&quot;1 1 [&amp;quot;ordered_list&amp;quot;,{&amp;quot;spread&amp;quot;:true,&amp;quot;startingNumber&amp;quot;:1,&amp;quot;start&amp;quot;:47,&amp;quot;end&amp;quot;:3211},&amp;quot;regular_list_item&amp;quot;,{&amp;quot;start&amp;quot;:923,&amp;quot;end&amp;quot;:1059}]&quot;&gt;Передает зашифрованное сообщение&lt;/p&gt;" style="edgeLabel;html=1;align=center;verticalAlign=middle;resizable=0;points=[];labelBackgroundColor=none;fontSize=9;" vertex="1" connectable="0" parent="qiRPAga-pybHtt2SZNbv-128">
          <mxGeometry x="0.0127" y="-3" relative="1" as="geometry">
            <mxPoint y="-12" as="offset" />
          </mxGeometry>
        </mxCell>
        <mxCell id="qiRPAga-pybHtt2SZNbv-110" value="" style="rounded=0;dashed=0;" vertex="1" parent="1">
          <mxGeometry x="1200" y="460" width="10" height="60" as="geometry" />
        </mxCell>
        <mxCell id="qiRPAga-pybHtt2SZNbv-111" value="" style="html=1;verticalAlign=bottom;startArrow=none;endArrow=none;dashed=1;rounded=0;" edge="1" parent="1" target="qiRPAga-pybHtt2SZNbv-110" source="qiRPAga-pybHtt2SZNbv-154">
          <mxGeometry relative="1" as="geometry">
            <mxPoint x="1205" y="780" as="sourcePoint" />
          </mxGeometry>
        </mxCell>
        <mxCell id="qiRPAga-pybHtt2SZNbv-115" value="" style="html=1;verticalAlign=bottom;startArrow=none;endArrow=none;dashed=1;rounded=0;entryX=0.5;entryY=1;entryDx=0;entryDy=0;exitX=0.5;exitY=0;exitDx=0;exitDy=0;" edge="1" parent="1" source="qiRPAga-pybHtt2SZNbv-116" target="qiRPAga-pybHtt2SZNbv-89">
          <mxGeometry relative="1" as="geometry">
            <mxPoint x="964.66" y="200" as="sourcePoint" />
            <mxPoint x="964.66" y="160" as="targetPoint" />
          </mxGeometry>
        </mxCell>
        <mxCell id="qiRPAga-pybHtt2SZNbv-119" style="edgeStyle=orthogonalEdgeStyle;rounded=0;orthogonalLoop=1;jettySize=auto;html=1;exitX=0;exitY=1;exitDx=0;exitDy=0;entryX=1;entryY=0.5;entryDx=0;entryDy=0;" edge="1" parent="1" source="qiRPAga-pybHtt2SZNbv-116" target="qiRPAga-pybHtt2SZNbv-120">
          <mxGeometry relative="1" as="geometry">
            <mxPoint x="930" y="310" as="targetPoint" />
          </mxGeometry>
        </mxCell>
        <mxCell id="qiRPAga-pybHtt2SZNbv-124" value="&lt;p data-pm-slice=&quot;1 1 [&amp;quot;ordered_list&amp;quot;,{&amp;quot;spread&amp;quot;:true,&amp;quot;startingNumber&amp;quot;:1,&amp;quot;start&amp;quot;:47,&amp;quot;end&amp;quot;:3211},&amp;quot;regular_list_item&amp;quot;,{&amp;quot;start&amp;quot;:427,&amp;quot;end&amp;quot;:559}]&quot;&gt;&amp;nbsp;Возвращает статус пользователя&lt;/p&gt;" style="edgeLabel;html=1;align=center;verticalAlign=middle;resizable=0;points=[];labelBackgroundColor=none;" vertex="1" connectable="0" parent="qiRPAga-pybHtt2SZNbv-119">
          <mxGeometry x="0.2497" y="2" relative="1" as="geometry">
            <mxPoint x="15" y="8" as="offset" />
          </mxGeometry>
        </mxCell>
        <mxCell id="qiRPAga-pybHtt2SZNbv-116" value="" style="rounded=0;dashed=0;" vertex="1" parent="1">
          <mxGeometry x="1030" y="200" width="10" height="60" as="geometry" />
        </mxCell>
        <mxCell id="qiRPAga-pybHtt2SZNbv-121" value="" style="html=1;verticalAlign=bottom;startArrow=none;endArrow=none;dashed=1;rounded=0;exitX=0.5;exitY=0.98;exitDx=0;exitDy=0;exitPerimeter=0;" edge="1" parent="1" target="qiRPAga-pybHtt2SZNbv-120">
          <mxGeometry relative="1" as="geometry">
            <mxPoint x="830" y="309.20000000000005" as="sourcePoint" />
            <mxPoint x="830" y="229" as="targetPoint" />
          </mxGeometry>
        </mxCell>
        <mxCell id="qiRPAga-pybHtt2SZNbv-125" style="edgeStyle=orthogonalEdgeStyle;rounded=0;orthogonalLoop=1;jettySize=auto;html=1;exitX=0;exitY=0.5;exitDx=0;exitDy=0;entryX=1;entryY=0.5;entryDx=0;entryDy=0;" edge="1" parent="1" source="qiRPAga-pybHtt2SZNbv-120" target="qiRPAga-pybHtt2SZNbv-122">
          <mxGeometry relative="1" as="geometry" />
        </mxCell>
        <mxCell id="qiRPAga-pybHtt2SZNbv-126" value="&lt;p data-pm-slice=&quot;1 1 [&amp;quot;ordered_list&amp;quot;,{&amp;quot;spread&amp;quot;:true,&amp;quot;startingNumber&amp;quot;:1,&amp;quot;start&amp;quot;:47,&amp;quot;end&amp;quot;:3211},&amp;quot;regular_list_item&amp;quot;,{&amp;quot;start&amp;quot;:561,&amp;quot;end&amp;quot;:685}]&quot;&gt;Передает результат авторизации&lt;/p&gt;" style="edgeLabel;html=1;align=center;verticalAlign=middle;resizable=0;points=[];labelBackgroundColor=none;" vertex="1" connectable="0" parent="qiRPAga-pybHtt2SZNbv-125">
          <mxGeometry x="-0.0081" y="-1" relative="1" as="geometry">
            <mxPoint as="offset" />
          </mxGeometry>
        </mxCell>
        <mxCell id="qiRPAga-pybHtt2SZNbv-120" value="" style="rounded=0;dashed=0;" vertex="1" parent="1">
          <mxGeometry x="827" y="270" width="10" height="60" as="geometry" />
        </mxCell>
        <mxCell id="qiRPAga-pybHtt2SZNbv-123" value="" style="html=1;verticalAlign=bottom;startArrow=none;endArrow=none;dashed=1;rounded=0;exitX=0.5;exitY=0.98;exitDx=0;exitDy=0;exitPerimeter=0;" edge="1" parent="1" source="qiRPAga-pybHtt2SZNbv-102" target="qiRPAga-pybHtt2SZNbv-122">
          <mxGeometry relative="1" as="geometry">
            <mxPoint x="520" y="519" as="sourcePoint" />
            <mxPoint x="520" y="230" as="targetPoint" />
          </mxGeometry>
        </mxCell>
        <mxCell id="qiRPAga-pybHtt2SZNbv-127" style="edgeStyle=orthogonalEdgeStyle;rounded=0;orthogonalLoop=1;jettySize=auto;html=1;exitX=0;exitY=0.5;exitDx=0;exitDy=0;" edge="1" parent="1" source="qiRPAga-pybHtt2SZNbv-122">
          <mxGeometry relative="1" as="geometry">
            <mxPoint x="110" y="320.0344827586207" as="targetPoint" />
          </mxGeometry>
        </mxCell>
        <mxCell id="qiRPAga-pybHtt2SZNbv-122" value="" style="rounded=0;dashed=0;" vertex="1" parent="1">
          <mxGeometry x="515" y="290" width="10" height="60" as="geometry" />
        </mxCell>
        <mxCell id="qiRPAga-pybHtt2SZNbv-102" value="" style="rounded=0;dashed=0;" vertex="1" parent="1">
          <mxGeometry x="515" y="460" width="10" height="60" as="geometry" />
        </mxCell>
        <mxCell id="qiRPAga-pybHtt2SZNbv-129" value="&lt;p data-pm-slice=&quot;1 1 [&amp;quot;ordered_list&amp;quot;,{&amp;quot;spread&amp;quot;:true,&amp;quot;startingNumber&amp;quot;:1,&amp;quot;start&amp;quot;:47,&amp;quot;end&amp;quot;:3211},&amp;quot;regular_list_item&amp;quot;,{&amp;quot;start&amp;quot;:47,&amp;quot;end&amp;quot;:162},&amp;quot;list&amp;quot;,{&amp;quot;spread&amp;quot;:false,&amp;quot;start&amp;quot;:101,&amp;quot;end&amp;quot;:162},&amp;quot;regular_list_item&amp;quot;,{&amp;quot;start&amp;quot;:101,&amp;quot;end&amp;quot;:162}]&quot;&gt;:&lt;span style=&quot;background-color: initial;&quot;&gt;Сервер доставки сообщений&lt;/span&gt;&lt;/p&gt;" style="rounded=0;dashed=0;whiteSpace=wrap;html=1;" vertex="1" parent="1">
          <mxGeometry x="1360" y="109" width="100" height="60" as="geometry" />
        </mxCell>
        <mxCell id="qiRPAga-pybHtt2SZNbv-130" value="" style="html=1;verticalAlign=bottom;startArrow=none;endArrow=none;dashed=1;rounded=0;" edge="1" parent="1" source="qiRPAga-pybHtt2SZNbv-131" target="qiRPAga-pybHtt2SZNbv-129">
          <mxGeometry relative="1" as="geometry" />
        </mxCell>
        <mxCell id="qiRPAga-pybHtt2SZNbv-137" style="edgeStyle=orthogonalEdgeStyle;rounded=0;orthogonalLoop=1;jettySize=auto;html=1;exitX=0;exitY=0.75;exitDx=0;exitDy=0;entryX=1;entryY=0.75;entryDx=0;entryDy=0;" edge="1" parent="1" source="qiRPAga-pybHtt2SZNbv-131" target="qiRPAga-pybHtt2SZNbv-135">
          <mxGeometry relative="1" as="geometry">
            <Array as="points">
              <mxPoint x="1405" y="520" />
              <mxPoint x="1310" y="520" />
              <mxPoint x="1310" y="600" />
            </Array>
          </mxGeometry>
        </mxCell>
        <mxCell id="qiRPAga-pybHtt2SZNbv-139" value="&lt;p data-pm-slice=&quot;1 1 [&amp;quot;ordered_list&amp;quot;,{&amp;quot;spread&amp;quot;:true,&amp;quot;startingNumber&amp;quot;:1,&amp;quot;start&amp;quot;:47,&amp;quot;end&amp;quot;:3211},&amp;quot;regular_list_item&amp;quot;,{&amp;quot;start&amp;quot;:1061,&amp;quot;end&amp;quot;:1182}]&quot;&gt;Сохраняет сообщение&lt;/p&gt;" style="edgeLabel;html=1;align=center;verticalAlign=middle;resizable=0;points=[];" vertex="1" connectable="0" parent="qiRPAga-pybHtt2SZNbv-137">
          <mxGeometry x="0.3822" y="1" relative="1" as="geometry">
            <mxPoint as="offset" />
          </mxGeometry>
        </mxCell>
        <mxCell id="qiRPAga-pybHtt2SZNbv-140" style="edgeStyle=orthogonalEdgeStyle;rounded=0;orthogonalLoop=1;jettySize=auto;html=1;exitX=1;exitY=0.5;exitDx=0;exitDy=0;entryX=0;entryY=0.25;entryDx=0;entryDy=0;" edge="1" parent="1" source="qiRPAga-pybHtt2SZNbv-131" target="qiRPAga-pybHtt2SZNbv-143">
          <mxGeometry relative="1" as="geometry">
            <mxPoint x="1530" y="500.0769230769231" as="targetPoint" />
          </mxGeometry>
        </mxCell>
        <mxCell id="qiRPAga-pybHtt2SZNbv-145" value="&lt;p data-pm-slice=&quot;1 1 [&amp;quot;ordered_list&amp;quot;,{&amp;quot;spread&amp;quot;:true,&amp;quot;startingNumber&amp;quot;:1,&amp;quot;start&amp;quot;:47,&amp;quot;end&amp;quot;:3211},&amp;quot;regular_list_item&amp;quot;,{&amp;quot;start&amp;quot;:1184,&amp;quot;end&amp;quot;:1330}]&quot;&gt;Отправляет уведомление о новом сообщении&lt;/p&gt;" style="edgeLabel;html=1;align=center;verticalAlign=middle;resizable=0;points=[];fontSize=7;labelBackgroundColor=none;" vertex="1" connectable="0" parent="qiRPAga-pybHtt2SZNbv-140">
          <mxGeometry x="-0.0122" relative="1" as="geometry">
            <mxPoint y="18" as="offset" />
          </mxGeometry>
        </mxCell>
        <mxCell id="qiRPAga-pybHtt2SZNbv-131" value="" style="rounded=0;dashed=0;" vertex="1" parent="1">
          <mxGeometry x="1405" y="470" width="10" height="60" as="geometry" />
        </mxCell>
        <mxCell id="qiRPAga-pybHtt2SZNbv-132" value="" style="html=1;verticalAlign=bottom;startArrow=none;endArrow=none;dashed=1;rounded=0;" edge="1" parent="1" target="qiRPAga-pybHtt2SZNbv-131" source="qiRPAga-pybHtt2SZNbv-152">
          <mxGeometry relative="1" as="geometry">
            <mxPoint x="1410" y="790" as="sourcePoint" />
          </mxGeometry>
        </mxCell>
        <mxCell id="qiRPAga-pybHtt2SZNbv-134" value="" style="html=1;verticalAlign=bottom;startArrow=none;endArrow=none;dashed=1;rounded=0;entryX=0.5;entryY=1;entryDx=0;entryDy=0;" edge="1" parent="1" source="qiRPAga-pybHtt2SZNbv-135" target="qiRPAga-pybHtt2SZNbv-116">
          <mxGeometry relative="1" as="geometry">
            <mxPoint x="1035" y="780" as="sourcePoint" />
            <mxPoint x="1034.6" y="320" as="targetPoint" />
          </mxGeometry>
        </mxCell>
        <mxCell id="qiRPAga-pybHtt2SZNbv-136" value="" style="html=1;verticalAlign=bottom;startArrow=none;endArrow=none;dashed=1;rounded=0;entryX=0.5;entryY=1;entryDx=0;entryDy=0;" edge="1" parent="1" target="qiRPAga-pybHtt2SZNbv-135">
          <mxGeometry relative="1" as="geometry">
            <mxPoint x="1035" y="780" as="sourcePoint" />
            <mxPoint x="1035" y="260" as="targetPoint" />
          </mxGeometry>
        </mxCell>
        <mxCell id="qiRPAga-pybHtt2SZNbv-135" value="" style="rounded=0;dashed=0;" vertex="1" parent="1">
          <mxGeometry x="1030" y="555" width="10" height="60" as="geometry" />
        </mxCell>
        <mxCell id="qiRPAga-pybHtt2SZNbv-141" value="&lt;p data-pm-slice=&quot;1 1 [&amp;quot;ordered_list&amp;quot;,{&amp;quot;spread&amp;quot;:true,&amp;quot;startingNumber&amp;quot;:1,&amp;quot;start&amp;quot;:47,&amp;quot;end&amp;quot;:3211},&amp;quot;regular_list_item&amp;quot;,{&amp;quot;start&amp;quot;:47,&amp;quot;end&amp;quot;:162},&amp;quot;list&amp;quot;,{&amp;quot;spread&amp;quot;:false,&amp;quot;start&amp;quot;:101,&amp;quot;end&amp;quot;:162},&amp;quot;regular_list_item&amp;quot;,{&amp;quot;start&amp;quot;:101,&amp;quot;end&amp;quot;:162}]&quot;&gt;:&lt;span style=&quot;background-color: initial;&quot;&gt;Сервер push-уведомлений&lt;/span&gt;&lt;/p&gt;" style="rounded=0;dashed=0;whiteSpace=wrap;html=1;" vertex="1" parent="1">
          <mxGeometry x="1545" y="120" width="100" height="60" as="geometry" />
        </mxCell>
        <mxCell id="qiRPAga-pybHtt2SZNbv-142" value="" style="html=1;verticalAlign=bottom;startArrow=none;endArrow=none;dashed=1;rounded=0;" edge="1" parent="1" source="qiRPAga-pybHtt2SZNbv-143" target="qiRPAga-pybHtt2SZNbv-141">
          <mxGeometry relative="1" as="geometry" />
        </mxCell>
        <mxCell id="qiRPAga-pybHtt2SZNbv-143" value="" style="rounded=0;dashed=0;" vertex="1" parent="1">
          <mxGeometry x="1590" y="490" width="10" height="60" as="geometry" />
        </mxCell>
        <mxCell id="qiRPAga-pybHtt2SZNbv-144" value="" style="html=1;verticalAlign=bottom;startArrow=none;endArrow=none;dashed=1;rounded=0;entryX=0.5;entryY=1;entryDx=0;entryDy=0;" edge="1" parent="1" target="qiRPAga-pybHtt2SZNbv-143">
          <mxGeometry relative="1" as="geometry">
            <mxPoint x="1595" y="821" as="sourcePoint" />
            <mxPoint x="1573.9323843416369" y="570" as="targetPoint" />
          </mxGeometry>
        </mxCell>
        <mxCell id="qiRPAga-pybHtt2SZNbv-147" value="Actor" style="shape=umlActor;verticalLabelPosition=bottom;verticalAlign=top;html=1;" vertex="1" parent="1">
          <mxGeometry x="1770" y="100" width="30" height="60" as="geometry" />
        </mxCell>
        <mxCell id="qiRPAga-pybHtt2SZNbv-148" value="" style="html=1;points=[[0,0,0,0,5],[0,1,0,0,-5],[1,0,0,0,5],[1,1,0,0,-5]];perimeter=orthogonalPerimeter;outlineConnect=0;targetShapes=umlLifeline;portConstraint=eastwest;newEdgeStyle={&quot;curved&quot;:0,&quot;rounded&quot;:0};" vertex="1" parent="1">
          <mxGeometry x="1775" y="180" width="20" height="880" as="geometry" />
        </mxCell>
        <mxCell id="qiRPAga-pybHtt2SZNbv-146" style="edgeStyle=orthogonalEdgeStyle;rounded=0;orthogonalLoop=1;jettySize=auto;html=1;exitX=1;exitY=0.5;exitDx=0;exitDy=0;" edge="1" parent="1" source="qiRPAga-pybHtt2SZNbv-143">
          <mxGeometry relative="1" as="geometry">
            <mxPoint x="1800" y="520" as="targetPoint" />
          </mxGeometry>
        </mxCell>
        <mxCell id="qiRPAga-pybHtt2SZNbv-149" value="&lt;p data-pm-slice=&quot;1 1 [&amp;quot;ordered_list&amp;quot;,{&amp;quot;spread&amp;quot;:true,&amp;quot;startingNumber&amp;quot;:1,&amp;quot;start&amp;quot;:47,&amp;quot;end&amp;quot;:3211},&amp;quot;regular_list_item&amp;quot;,{&amp;quot;start&amp;quot;:1332,&amp;quot;end&amp;quot;:1473}]&quot;&gt;Доставляет push-уведомление&lt;/p&gt;" style="edgeLabel;html=1;align=center;verticalAlign=middle;resizable=0;points=[];labelBackgroundColor=none;" vertex="1" connectable="0" parent="qiRPAga-pybHtt2SZNbv-146">
          <mxGeometry x="-0.0139" y="2" relative="1" as="geometry">
            <mxPoint x="-9" y="-8" as="offset" />
          </mxGeometry>
        </mxCell>
        <mxCell id="qiRPAga-pybHtt2SZNbv-150" style="edgeStyle=orthogonalEdgeStyle;rounded=0;orthogonalLoop=1;jettySize=auto;html=1;entryX=1;entryY=0.5;entryDx=0;entryDy=0;" edge="1" parent="1" target="qiRPAga-pybHtt2SZNbv-152">
          <mxGeometry relative="1" as="geometry">
            <mxPoint x="1450" y="631" as="targetPoint" />
            <mxPoint x="1800" y="630" as="sourcePoint" />
          </mxGeometry>
        </mxCell>
        <mxCell id="qiRPAga-pybHtt2SZNbv-151" value="&lt;p data-pm-slice=&quot;1 1 [&amp;quot;ordered_list&amp;quot;,{&amp;quot;spread&amp;quot;:true,&amp;quot;startingNumber&amp;quot;:1,&amp;quot;start&amp;quot;:47,&amp;quot;end&amp;quot;:3211},&amp;quot;regular_list_item&amp;quot;,{&amp;quot;start&amp;quot;:1631,&amp;quot;end&amp;quot;:1758}]&quot;&gt;Получает сообщение&lt;/p&gt;" style="edgeLabel;html=1;align=center;verticalAlign=middle;resizable=0;points=[];labelBackgroundColor=none;" vertex="1" connectable="0" parent="qiRPAga-pybHtt2SZNbv-150">
          <mxGeometry x="-0.0139" y="2" relative="1" as="geometry">
            <mxPoint x="-9" y="-8" as="offset" />
          </mxGeometry>
        </mxCell>
        <mxCell id="qiRPAga-pybHtt2SZNbv-153" value="" style="html=1;verticalAlign=bottom;startArrow=none;endArrow=none;dashed=1;rounded=0;" edge="1" parent="1" target="qiRPAga-pybHtt2SZNbv-152">
          <mxGeometry relative="1" as="geometry">
            <mxPoint x="1410" y="790" as="sourcePoint" />
            <mxPoint x="1410" y="530" as="targetPoint" />
          </mxGeometry>
        </mxCell>
        <mxCell id="qiRPAga-pybHtt2SZNbv-156" style="edgeStyle=orthogonalEdgeStyle;rounded=0;orthogonalLoop=1;jettySize=auto;html=1;exitX=0;exitY=0.75;exitDx=0;exitDy=0;entryX=1;entryY=0.75;entryDx=0;entryDy=0;" edge="1" parent="1" source="qiRPAga-pybHtt2SZNbv-152" target="qiRPAga-pybHtt2SZNbv-154">
          <mxGeometry relative="1" as="geometry" />
        </mxCell>
        <mxCell id="qiRPAga-pybHtt2SZNbv-157" value="&lt;p data-pm-slice=&quot;1 1 [&amp;quot;ordered_list&amp;quot;,{&amp;quot;spread&amp;quot;:true,&amp;quot;startingNumber&amp;quot;:1,&amp;quot;start&amp;quot;:47,&amp;quot;end&amp;quot;:3211},&amp;quot;regular_list_item&amp;quot;,{&amp;quot;start&amp;quot;:1760,&amp;quot;end&amp;quot;:1898}]&quot;&gt;Передает запрос на дешифрование&lt;/p&gt;" style="edgeLabel;html=1;align=center;verticalAlign=middle;resizable=0;points=[];fontSize=10;" vertex="1" connectable="0" parent="qiRPAga-pybHtt2SZNbv-156">
          <mxGeometry x="0.0251" y="-2" relative="1" as="geometry">
            <mxPoint as="offset" />
          </mxGeometry>
        </mxCell>
        <mxCell id="qiRPAga-pybHtt2SZNbv-152" value="" style="rounded=0;dashed=0;" vertex="1" parent="1">
          <mxGeometry x="1405" y="600" width="10" height="60" as="geometry" />
        </mxCell>
        <mxCell id="qiRPAga-pybHtt2SZNbv-155" value="" style="html=1;verticalAlign=bottom;startArrow=none;endArrow=none;dashed=1;rounded=0;" edge="1" parent="1" target="qiRPAga-pybHtt2SZNbv-154">
          <mxGeometry relative="1" as="geometry">
            <mxPoint x="1205" y="780" as="sourcePoint" />
            <mxPoint x="1205" y="520" as="targetPoint" />
          </mxGeometry>
        </mxCell>
        <mxCell id="qiRPAga-pybHtt2SZNbv-158" style="edgeStyle=orthogonalEdgeStyle;rounded=0;orthogonalLoop=1;jettySize=auto;html=1;exitX=0;exitY=0.75;exitDx=0;exitDy=0;" edge="1" parent="1" source="qiRPAga-pybHtt2SZNbv-154">
          <mxGeometry relative="1" as="geometry">
            <mxPoint x="1810" y="745" as="targetPoint" />
            <Array as="points">
              <mxPoint x="1180" y="705" />
              <mxPoint x="1180" y="745" />
            </Array>
          </mxGeometry>
        </mxCell>
        <mxCell id="qiRPAga-pybHtt2SZNbv-159" value="&lt;p data-pm-slice=&quot;1 1 [&amp;quot;ordered_list&amp;quot;,{&amp;quot;spread&amp;quot;:true,&amp;quot;startingNumber&amp;quot;:1,&amp;quot;start&amp;quot;:47,&amp;quot;end&amp;quot;:3211},&amp;quot;regular_list_item&amp;quot;,{&amp;quot;start&amp;quot;:1900,&amp;quot;end&amp;quot;:2046}]&quot;&gt;Возвращает расшифрованное сообщение&lt;/p&gt;" style="edgeLabel;html=1;align=center;verticalAlign=middle;resizable=0;points=[];" vertex="1" connectable="0" parent="qiRPAga-pybHtt2SZNbv-158">
          <mxGeometry x="0.0785" y="4" relative="1" as="geometry">
            <mxPoint as="offset" />
          </mxGeometry>
        </mxCell>
        <mxCell id="qiRPAga-pybHtt2SZNbv-154" value="" style="rounded=0;dashed=0;" vertex="1" parent="1">
          <mxGeometry x="1200" y="660" width="10" height="60" as="geometry" />
        </mxCell>
      </root>
    </mxGraphModel>
  </diagram>
</mxfile>
